<svg xmlns="http://www.w3.org/2000/svg" xmlnsXlink="http://www.w3.org/1999/xlink" width="1080" zoomAndPan="magnify" viewBox="0 0 810 809.999993" height="1080" preserveAspectRatio="xMidYMid meet" version="1.0"><defs><clipPath id="7e8a2d5ce5"><path d="M 173 202 L 637 202 L 637 607.351562 L 173 607.351562 Z M 173 202 " clip-rule="nonzero"/></clipPath><clipPath id="9aa09293af"><path d="M 192.078125 267.269531 C 154.578125 329.050781 180.996094 389.1875 214.199219 421.101562 L 408.328125 607.351562 L 598.359375 421.769531 C 629.238281 387.433594 641.074219 351.015625 634.5 310.460938 C 625.421875 254.367188 579.191406 210.84375 522.085938 204.628906 C 487.0625 200.855469 453.230469 210.769531 426.824219 232.710938 C 419.714844 238.617188 413.363281 245.214844 407.828125 252.390625 C 401.257812 244.222656 393.554688 236.75 384.84375 230.128906 C 354.476562 207.050781 315.824219 197.886719 278.695312 205.011719 C 243.53125 211.804688 211.96875 234.488281 192.078125 267.269531 Z M 192.078125 267.269531 " clip-rule="nonzero"/></clipPath></defs><g clip-path="url(#7e8a2d5ce5)"><g clip-path="url(#9aa09293af)"><path fill="#e42d2d" d="M 173.742188 202.648438 L 636.257812 202.648438 L 636.257812 607.351562 L 173.742188 607.351562 Z M 173.742188 202.648438 " fill-opacity="1" fill-rule="nonzero"/></g></g></svg>