<svg xmlns="http://www.w3.org/2000/svg" xmlns:xlink="http://www.w3.org/1999/xlink" width="1080" zoomAndPan="magnify" viewBox="0 0 810 809.999993" height="1080" preserveAspectRatio="xMidYMid meet" version="1.0"><defs><clipPath id="6fac546228"><path d="M 197 139.726562 L 613 139.726562 L 613 670.273438 L 197 670.273438 Z M 197 139.726562 " clip-rule="nonzero"/></clipPath><clipPath id="3e3cb15eed"><path d="M 502.695312 571.921875 C 473.8125 571.984375 446.214844 560.898438 419.460938 549.976562 C 424.078125 571.613281 430.507812 592.941406 438.796875 613.464844 C 442.105469 621.664062 460.929688 670.273438 470.691406 670.273438 C 448.527344 670.273438 426.785156 670.273438 405.011719 670.273438 C 383.238281 670.273438 361.496094 670.273438 339.328125 670.273438 C 349.089844 670.273438 367.914062 621.664062 371.226562 613.464844 C 379.511719 592.941406 385.941406 571.613281 390.558594 549.976562 C 363.820312 560.898438 336.207031 571.984375 307.324219 571.921875 C 241.347656 571.785156 189.449219 510.453125 198.921875 446.117188 C 208.175781 383.300781 254.335938 334.109375 294.199219 288.140625 C 333.777344 242.503906 371.425781 195.039062 402.6875 143.246094 C 403.410156 142.058594 404.183594 140.902344 405.011719 139.726562 C 405.839844 140.902344 406.613281 142.058594 407.335938 143.246094 C 438.59375 195.050781 476.242188 242.515625 515.820312 288.140625 C 555.6875 334.109375 601.84375 383.300781 611.097656 446.117188 C 620.5625 510.453125 568.664062 571.785156 502.695312 571.921875 Z M 502.695312 571.921875 " clip-rule="nonzero"/></clipPath></defs><g clip-path="url(#6fac546228)"><g clip-path="url(#3e3cb15eed)"><path fill="#000000" d="M 197.800781 139.726562 L 612.199219 139.726562 L 612.199219 670.273438 L 197.800781 670.273438 Z M 197.800781 139.726562 " fill-opacity="1" fill-rule="nonzero"/></g></g></svg>