<svg xmlns="http://www.w3.org/2000/svg" xmlnsXlink="http://www.w3.org/1999/xlink" width="1080" zoomAndPan="magnify" viewBox="0 0 810 809.999993" height="1080" preserveAspectRatio="xMidYMid meet" version="1.0"><defs><clipPath id="5346f66024"><path d="M 162 162 L 648 162 L 648 648 L 162 648 Z M 162 162 " clip-rule="nonzero"/></clipPath></defs><g clip-path="url(#5346f66024)"><path fill="#000000" d="M 405 162 C 347.511719 162 300.859375 210.988281 300.859375 271.351562 C 301.359375 309.335938 320.960938 341.4375 341.355469 371.964844 C 318.621094 354.761719 293.351562 344.355469 266.140625 344.25 C 208.65625 344.25 162 393.238281 162 453.601562 C 162 513.960938 208.65625 562.949219 266.140625 562.949219 C 312.710938 562.171875 349.957031 529.585938 386.558594 502.199219 C 380.007812 584.007812 366.6875 629.945312 289.285156 648 L 520.71875 648 C 443.316406 629.941406 429.996094 584.007812 423.445312 502.199219 C 459.621094 533.207031 497.5625 559.511719 543.859375 562.949219 C 601.347656 562.949219 648.003906 513.960938 648.003906 453.601562 C 648.003906 393.238281 601.347656 344.25 543.859375 344.25 C 515.953125 344.246094 491.847656 357.089844 468.644531 371.964844 C 491.734375 341.75 506.929688 309.144531 509.144531 271.351562 C 509.144531 210.988281 462.488281 162 405.003906 162 Z M 405 162 " fill-opacity="1" fill-rule="nonzero"/></g></svg>