<svg xmlns="http://www.w3.org/2000/svg" xmlns:xlink="http://www.w3.org/1999/xlink" width="1080" zoomAndPan="magnify" viewBox="0 0 810 809.999993" height="1080" preserveAspectRatio="xMidYMid meet" version="1.0"><defs><clipPath id="0b2739b783"><path d="M 174 263.246094 L 637 263.246094 L 637 618 L 174 618 Z M 174 263.246094 " clip-rule="nonzero"/></clipPath><clipPath id="f2f2499a4a"><path d="M 126.707031 430.023438 L 168.078125 430.023438 L 168.078125 471.394531 L 126.707031 471.394531 Z M 126.707031 430.023438 " clip-rule="nonzero"/></clipPath><clipPath id="b1a2a34061"><path d="M 147.394531 430.023438 C 135.96875 430.023438 126.707031 439.285156 126.707031 450.707031 C 126.707031 462.132812 135.96875 471.394531 147.394531 471.394531 C 158.816406 471.394531 168.078125 462.132812 168.078125 450.707031 C 168.078125 439.285156 158.816406 430.023438 147.394531 430.023438 Z M 147.394531 430.023438 " clip-rule="nonzero"/></clipPath><clipPath id="535cc081fa"><path d="M 126.707031 483.152344 L 168.078125 483.152344 L 168.078125 524.523438 L 126.707031 524.523438 Z M 126.707031 483.152344 " clip-rule="nonzero"/></clipPath><clipPath id="1842d9fab3"><path d="M 147.394531 483.152344 C 135.96875 483.152344 126.707031 492.414062 126.707031 503.835938 C 126.707031 515.261719 135.96875 524.523438 147.394531 524.523438 C 158.816406 524.523438 168.078125 515.261719 168.078125 503.835938 C 168.078125 492.414062 158.816406 483.152344 147.394531 483.152344 Z M 147.394531 483.152344 " clip-rule="nonzero"/></clipPath><clipPath id="256cbd3d31"><path d="M 642.195312 483.152344 L 683.566406 483.152344 L 683.566406 524.523438 L 642.195312 524.523438 Z M 642.195312 483.152344 " clip-rule="nonzero"/></clipPath><clipPath id="b37ae9059e"><path d="M 662.878906 483.152344 C 651.453125 483.152344 642.195312 492.414062 642.195312 503.835938 C 642.195312 515.261719 651.453125 524.523438 662.878906 524.523438 C 674.304688 524.523438 683.566406 515.261719 683.566406 503.835938 C 683.566406 492.414062 674.304688 483.152344 662.878906 483.152344 Z M 662.878906 483.152344 " clip-rule="nonzero"/></clipPath><clipPath id="7c4ab8a1c6"><path d="M 147.394531 541.023438 L 188.765625 541.023438 L 188.765625 582.394531 L 147.394531 582.394531 Z M 147.394531 541.023438 " clip-rule="nonzero"/></clipPath><clipPath id="9c51ef0ccb"><path d="M 168.078125 541.023438 C 156.652344 541.023438 147.394531 550.285156 147.394531 561.707031 C 147.394531 573.132812 156.652344 582.394531 168.078125 582.394531 C 179.503906 582.394531 188.765625 573.132812 188.765625 561.707031 C 188.765625 550.285156 179.503906 541.023438 168.078125 541.023438 Z M 168.078125 541.023438 " clip-rule="nonzero"/></clipPath><clipPath id="ff9a003dfe"><path d="M 621.234375 541.023438 L 662.605469 541.023438 L 662.605469 582.394531 L 621.234375 582.394531 Z M 621.234375 541.023438 " clip-rule="nonzero"/></clipPath><clipPath id="c5230beee7"><path d="M 641.921875 541.023438 C 630.496094 541.023438 621.234375 550.285156 621.234375 561.707031 C 621.234375 573.132812 630.496094 582.394531 641.921875 582.394531 C 653.347656 582.394531 662.605469 573.132812 662.605469 561.707031 C 662.605469 550.285156 653.347656 541.023438 641.921875 541.023438 Z M 641.921875 541.023438 " clip-rule="nonzero"/></clipPath><clipPath id="e3d2a1c03c"><path d="M 168.078125 598.59375 L 209.449219 598.59375 L 209.449219 639.964844 L 168.078125 639.964844 Z M 168.078125 598.59375 " clip-rule="nonzero"/></clipPath><clipPath id="2bdaad8133"><path d="M 188.765625 598.59375 C 177.339844 598.59375 168.078125 607.855469 168.078125 619.277344 C 168.078125 630.703125 177.339844 639.964844 188.765625 639.964844 C 200.1875 639.964844 209.449219 630.703125 209.449219 619.277344 C 209.449219 607.855469 200.1875 598.59375 188.765625 598.59375 Z M 188.765625 598.59375 " clip-rule="nonzero"/></clipPath><clipPath id="512cbd6291"><path d="M 595.574219 598.59375 L 636.945312 598.59375 L 636.945312 639.964844 L 595.574219 639.964844 Z M 595.574219 598.59375 " clip-rule="nonzero"/></clipPath><clipPath id="1f6b14196a"><path d="M 616.257812 598.59375 C 604.832031 598.59375 595.574219 607.855469 595.574219 619.277344 C 595.574219 630.703125 604.832031 639.964844 616.257812 639.964844 C 627.683594 639.964844 636.945312 630.703125 636.945312 619.277344 C 636.945312 607.855469 627.683594 598.59375 616.257812 598.59375 Z M 616.257812 598.59375 " clip-rule="nonzero"/></clipPath><clipPath id="de3a53a5de"><path d="M 642.195312 430.023438 L 683.566406 430.023438 L 683.566406 471.394531 L 642.195312 471.394531 Z M 642.195312 430.023438 " clip-rule="nonzero"/></clipPath><clipPath id="4cdfd804f6"><path d="M 662.878906 430.023438 C 651.453125 430.023438 642.195312 439.285156 642.195312 450.707031 C 642.195312 462.132812 651.453125 471.394531 662.878906 471.394531 C 674.304688 471.394531 683.566406 462.132812 683.566406 450.707031 C 683.566406 439.285156 674.304688 430.023438 662.878906 430.023438 Z M 662.878906 430.023438 " clip-rule="nonzero"/></clipPath><clipPath id="00f356f479"><path d="M 139.136719 363.628906 L 180.507812 363.628906 L 180.507812 405 L 139.136719 405 Z M 139.136719 363.628906 " clip-rule="nonzero"/></clipPath><clipPath id="ed9bd64a25"><path d="M 159.824219 363.628906 C 148.398438 363.628906 139.136719 372.890625 139.136719 384.316406 C 139.136719 395.738281 148.398438 405 159.824219 405 C 171.246094 405 180.507812 395.738281 180.507812 384.316406 C 180.507812 372.890625 171.246094 363.628906 159.824219 363.628906 Z M 159.824219 363.628906 " clip-rule="nonzero"/></clipPath><clipPath id="e2a0a16302"><path d="M 628.019531 363.628906 L 669.390625 363.628906 L 669.390625 405 L 628.019531 405 Z M 628.019531 363.628906 " clip-rule="nonzero"/></clipPath><clipPath id="866114dc98"><path d="M 648.707031 363.628906 C 637.28125 363.628906 628.019531 372.890625 628.019531 384.316406 C 628.019531 395.738281 637.28125 405 648.707031 405 C 660.132812 405 669.390625 395.738281 669.390625 384.316406 C 669.390625 372.890625 660.132812 363.628906 648.707031 363.628906 Z M 648.707031 363.628906 " clip-rule="nonzero"/></clipPath><clipPath id="36daab637e"><path d="M 173.054688 305.625 L 214.425781 305.625 L 214.425781 346.996094 L 173.054688 346.996094 Z M 173.054688 305.625 " clip-rule="nonzero"/></clipPath><clipPath id="cf83a4367d"><path d="M 193.742188 305.625 C 182.316406 305.625 173.054688 314.886719 173.054688 326.3125 C 173.054688 337.734375 182.316406 346.996094 193.742188 346.996094 C 205.167969 346.996094 214.425781 337.734375 214.425781 326.3125 C 214.425781 314.886719 205.167969 305.625 193.742188 305.625 Z M 193.742188 305.625 " clip-rule="nonzero"/></clipPath><clipPath id="01cb1eda11"><path d="M 595.574219 305.625 L 636.945312 305.625 L 636.945312 346.996094 L 595.574219 346.996094 Z M 595.574219 305.625 " clip-rule="nonzero"/></clipPath><clipPath id="d97f7c77da"><path d="M 616.257812 305.625 C 604.832031 305.625 595.574219 314.886719 595.574219 326.3125 C 595.574219 337.734375 604.832031 346.996094 616.257812 346.996094 C 627.683594 346.996094 636.945312 337.734375 636.945312 326.3125 C 636.945312 314.886719 627.683594 305.625 616.257812 305.625 Z M 616.257812 305.625 " clip-rule="nonzero"/></clipPath><clipPath id="617eac1347"><path d="M 214.425781 254.871094 L 255.796875 254.871094 L 255.796875 296.242188 L 214.425781 296.242188 Z M 214.425781 254.871094 " clip-rule="nonzero"/></clipPath><clipPath id="3c27a6cf0a"><path d="M 235.113281 254.871094 C 223.6875 254.871094 214.425781 264.132812 214.425781 275.558594 C 214.425781 286.984375 223.6875 296.242188 235.113281 296.242188 C 246.539062 296.242188 255.796875 286.984375 255.796875 275.558594 C 255.796875 264.132812 246.539062 254.871094 235.113281 254.871094 Z M 235.113281 254.871094 " clip-rule="nonzero"/></clipPath><clipPath id="da1642ee18"><path d="M 558.675781 254.871094 L 600.046875 254.871094 L 600.046875 296.242188 L 558.675781 296.242188 Z M 558.675781 254.871094 " clip-rule="nonzero"/></clipPath><clipPath id="cda7a246c2"><path d="M 579.363281 254.871094 C 567.9375 254.871094 558.675781 264.132812 558.675781 275.558594 C 558.675781 286.984375 567.9375 296.242188 579.363281 296.242188 C 590.789062 296.242188 600.046875 286.984375 600.046875 275.558594 C 600.046875 264.132812 590.789062 254.871094 579.363281 254.871094 Z M 579.363281 254.871094 " clip-rule="nonzero"/></clipPath><clipPath id="1c10722b22"><path d="M 271.394531 221.875 L 312.765625 221.875 L 312.765625 263.246094 L 271.394531 263.246094 Z M 271.394531 221.875 " clip-rule="nonzero"/></clipPath><clipPath id="f4e2281092"><path d="M 292.082031 221.875 C 280.65625 221.875 271.394531 231.136719 271.394531 242.558594 C 271.394531 253.984375 280.65625 263.246094 292.082031 263.246094 C 303.503906 263.246094 312.765625 253.984375 312.765625 242.558594 C 312.765625 231.136719 303.503906 221.875 292.082031 221.875 Z M 292.082031 221.875 " clip-rule="nonzero"/></clipPath><clipPath id="a1412989f8"><path d="M 501.554688 221.875 L 542.925781 221.875 L 542.925781 263.246094 L 501.554688 263.246094 Z M 501.554688 221.875 " clip-rule="nonzero"/></clipPath><clipPath id="29a3c6c6c0"><path d="M 522.242188 221.875 C 510.816406 221.875 501.554688 231.136719 501.554688 242.558594 C 501.554688 253.984375 510.816406 263.246094 522.242188 263.246094 C 533.667969 263.246094 542.925781 253.984375 542.925781 242.558594 C 542.925781 231.136719 533.667969 221.875 522.242188 221.875 Z M 522.242188 221.875 " clip-rule="nonzero"/></clipPath><clipPath id="180dde0782"><path d="M 324.21875 199.015625 L 365.589844 199.015625 L 365.589844 240.386719 L 324.21875 240.386719 Z M 324.21875 199.015625 " clip-rule="nonzero"/></clipPath><clipPath id="274d2f0744"><path d="M 344.90625 199.015625 C 333.480469 199.015625 324.21875 208.277344 324.21875 219.703125 C 324.21875 231.125 333.480469 240.386719 344.90625 240.386719 C 356.328125 240.386719 365.589844 231.125 365.589844 219.703125 C 365.589844 208.277344 356.328125 199.015625 344.90625 199.015625 Z M 344.90625 199.015625 " clip-rule="nonzero"/></clipPath><clipPath id="9a4cde5957"><path d="M 444.433594 199.015625 L 485.804688 199.015625 L 485.804688 240.386719 L 444.433594 240.386719 Z M 444.433594 199.015625 " clip-rule="nonzero"/></clipPath><clipPath id="c29194731a"><path d="M 465.121094 199.015625 C 453.695312 199.015625 444.433594 208.277344 444.433594 219.703125 C 444.433594 231.125 453.695312 240.386719 465.121094 240.386719 C 476.546875 240.386719 485.804688 231.125 485.804688 219.703125 C 485.804688 208.277344 476.546875 199.015625 465.121094 199.015625 Z M 465.121094 199.015625 " clip-rule="nonzero"/></clipPath><clipPath id="abb240a14b"><path d="M 384.316406 193.101562 L 425.683594 193.101562 L 425.683594 234.472656 L 384.316406 234.472656 Z M 384.316406 193.101562 " clip-rule="nonzero"/></clipPath><clipPath id="0cc8e970f9"><path d="M 405 193.101562 C 393.574219 193.101562 384.316406 202.363281 384.316406 213.785156 C 384.316406 225.210938 393.574219 234.472656 405 234.472656 C 416.425781 234.472656 425.683594 225.210938 425.683594 213.785156 C 425.683594 202.363281 416.425781 193.101562 405 193.101562 Z M 405 193.101562 " clip-rule="nonzero"/></clipPath><clipPath id="5fb4b73b88"><path d="M 244.089844 632.914062 L 570.957031 632.914062 L 570.957031 680.023438 L 244.089844 680.023438 Z M 244.089844 632.914062 " clip-rule="nonzero"/></clipPath><clipPath id="a78c3dc488"><path d="M 267.644531 632.914062 L 547.402344 632.914062 C 553.648438 632.914062 559.640625 635.394531 564.058594 639.8125 C 568.476562 644.230469 570.957031 650.222656 570.957031 656.46875 C 570.957031 662.714844 568.476562 668.707031 564.058594 673.125 C 559.640625 677.542969 553.648438 680.023438 547.402344 680.023438 L 267.644531 680.023438 C 261.398438 680.023438 255.40625 677.542969 250.988281 673.125 C 246.570312 668.707031 244.089844 662.714844 244.089844 656.46875 C 244.089844 650.222656 246.570312 644.230469 250.988281 639.8125 C 255.40625 635.394531 261.398438 632.914062 267.644531 632.914062 Z M 267.644531 632.914062 " clip-rule="nonzero"/></clipPath></defs><g clip-path="url(#0b2739b783)"><path fill="#000000" d="M 243.074219 616.140625 C 240.253906 611.578125 244.125 600.859375 249.4375 598.53125 C 255.355469 595.933594 257.613281 585.070312 253.3125 579.886719 C 251.785156 578.050781 248.238281 576.546875 245.425781 576.546875 C 242.613281 576.546875 237.78125 573.851562 234.6875 570.558594 C 229.175781 564.691406 229.152344 564.503906 233.5625 561.277344 C 236.042969 559.464844 239.4375 557.984375 241.105469 557.984375 C 245.734375 557.984375 244.800781 555.914062 237.335938 549.632812 C 230.617188 543.984375 230.578125 543.808594 234.433594 537.066406 C 239.203125 528.722656 236.308594 522.382812 227.230469 521.296875 C 222.695312 520.75 220.441406 522.082031 218 526.746094 L 214.765625 532.914062 L 201.210938 521.234375 L 206.097656 514.664062 C 212.414062 506.171875 217.71875 505.28125 224.433594 511.585938 C 228.527344 515.433594 230.820312 516.109375 233.914062 514.378906 C 239.9375 511.007812 250.847656 515.527344 252.492188 522.078125 C 254.386719 529.636719 251.707031 536.59375 246.226562 538.335938 C 242.519531 539.511719 242.132812 540.472656 244.308594 543.09375 C 245.808594 544.902344 249.441406 546.378906 252.386719 546.378906 C 263.773438 546.378906 269.535156 531.742188 260.390625 526.035156 C 251.121094 520.246094 255.695312 506.101562 266.445312 507.328125 C 271.847656 507.945312 273.300781 509.363281 273.902344 514.613281 C 274.3125 518.199219 273.386719 522.660156 271.84375 524.519531 C 267.324219 529.964844 275.394531 537.097656 286.074219 537.097656 C 292.988281 537.097656 296.050781 535.597656 300.894531 529.847656 C 307.644531 521.824219 307.371094 519.148438 300.195312 522.988281 C 291.3125 527.742188 284 526.039062 279.988281 518.285156 C 275.3125 509.246094 277.109375 501.558594 284.703125 498.097656 C 288.566406 496.339844 290.5625 493.558594 290.5625 489.9375 C 290.5625 476.910156 310.308594 471.648438 317.578125 482.738281 C 320.074219 486.550781 322.976562 488.324219 325.601562 487.636719 C 333.429688 485.589844 339.300781 492.371094 339.300781 503.453125 C 339.300781 514.382812 333.804688 520.777344 324.277344 520.933594 C 319.804688 521.003906 319.839844 521.234375 325.050781 525.574219 C 332.640625 531.894531 338.503906 531.285156 346.441406 523.355469 C 354.351562 515.445312 355.15625 507.082031 348.582031 501.132812 C 342.730469 495.835938 342.671875 490.234375 348.414062 485.039062 C 358.136719 476.242188 370.175781 490.214844 361.316406 500.003906 C 353.195312 508.976562 366.476562 525.496094 381.804688 525.496094 C 389.113281 525.496094 399.640625 517.128906 399.640625 511.324219 C 399.640625 507.539062 398.878906 507.175781 395.152344 509.171875 C 381.519531 516.464844 369.46875 508.71875 369.46875 492.660156 C 369.46875 483.277344 373.714844 477.535156 382.234375 475.398438 C 386.488281 474.332031 387.671875 472.511719 387.523438 467.265625 C 387.230469 457.03125 393.835938 451.242188 405.800781 451.242188 C 417.90625 451.242188 425.167969 457.273438 425.167969 467.328125 C 425.167969 472.367188 426.523438 474.546875 430.390625 475.722656 C 438.753906 478.273438 443.734375 483.953125 443.734375 490.941406 C 443.734375 506.757812 433.570312 514.886719 420.128906 509.8125 C 408.535156 505.4375 409.023438 516.066406 420.695312 522.101562 C 433.617188 528.785156 445.027344 524.78125 452.113281 511.078125 C 455.515625 504.503906 455.515625 503.734375 452.101562 501.824219 C 447.738281 499.382812 447.144531 488.210938 451.160156 484.191406 C 455.578125 479.777344 461.886719 480.9375 465.78125 486.882812 C 469.808594 493.023438 468.445312 499.003906 462.261719 502.3125 C 458.824219 504.152344 458.460938 505.992188 460.101562 513.269531 C 463.605469 528.808594 477.140625 534.746094 488.15625 525.574219 L 493.632812 521.007812 L 487.695312 520.933594 C 478.953125 520.820312 473.976562 516.125 472.417969 506.515625 C 471.261719 499.410156 472.023438 497 476.984375 492.042969 C 480.578125 488.445312 484.375 486.648438 486.582031 487.496094 C 488.882812 488.378906 491.992188 486.65625 495 482.832031 C 502.894531 472.796875 522.644531 477.011719 522.644531 488.730469 C 522.644531 491.335938 525.671875 496.296875 529.371094 499.75 C 534.484375 504.527344 535.816406 507.5 534.929688 512.144531 C 532.617188 524.222656 523.953125 527.738281 510.460938 522.066406 C 504.675781 519.636719 505.4375 523.78125 512.089844 530.957031 C 516.382812 535.589844 520.019531 537.097656 526.890625 537.097656 C 538.828125 537.097656 542.792969 532.601562 538.976562 523.386719 C 535.421875 514.808594 539.085938 506.933594 546.628906 506.933594 C 557.460938 506.933594 560.941406 517.371094 552.816406 525.496094 C 540.636719 537.671875 554.300781 553.359375 568.035156 542.972656 C 572.0625 539.929688 572.113281 539.558594 568.535156 539.492188 C 566.328125 539.453125 562.785156 536.765625 560.660156 533.523438 C 553.488281 522.578125 565.164062 509.386719 577.804688 514.148438 C 581.773438 515.644531 584.199219 515 587.667969 511.53125 C 593.238281 505.964844 596.546875 505.777344 603.488281 510.636719 C 610.128906 515.289062 609.472656 524.734375 602.171875 529.550781 C 597.328125 532.746094 596.839844 532.574219 594.6875 526.914062 C 592.929688 522.292969 590.777344 520.855469 585.613281 520.855469 C 575.964844 520.855469 572.488281 531.664062 579.601562 539.527344 C 582.867188 543.136719 582.566406 544 576.121094 549.421875 C 568.414062 555.90625 567.4375 557.984375 572.097656 557.984375 C 573.769531 557.984375 577.152344 559.457031 579.617188 561.261719 C 583.972656 564.441406 583.914062 564.710938 577.621094 570.542969 C 574.058594 573.84375 569.132812 576.546875 566.671875 576.546875 C 564.214844 576.546875 560.496094 579.15625 558.402344 582.347656 C 554.882812 587.722656 554.882812 588.574219 558.402344 593.949219 C 560.496094 597.140625 563.097656 599.75 564.191406 599.75 C 565.28125 599.75 567.5 602.941406 569.113281 606.839844 C 573.894531 618.382812 569.898438 619.515625 548.378906 612.71875 C 472.085938 588.621094 350.003906 587.734375 271.996094 610.710938 C 261.144531 613.90625 250.558594 617.015625 248.46875 617.621094 C 246.378906 618.226562 243.953125 617.5625 243.074219 616.140625 Z M 272.863281 599.761719 C 315.980469 590.308594 340.058594 587.648438 392.679688 586.523438 C 456.210938 585.164062 501.890625 589.949219 555.136719 603.542969 C 559.144531 604.566406 560.21875 604.269531 558.617188 602.59375 C 555.644531 599.480469 520.09375 591.886719 484.351562 586.730469 C 449.355469 581.679688 371.625 581.023438 336.976562 585.488281 C 323.574219 587.210938 300.078125 591.128906 284.761719 594.1875 C 269.449219 597.246094 256.132812 599.75 255.171875 599.75 C 254.214844 599.75 253.429688 600.867188 253.429688 602.226562 C 253.429688 603.589844 255.253906 604.152344 257.488281 603.472656 C 259.722656 602.796875 266.640625 601.125 272.863281 599.761719 Z M 330.066406 575.078125 C 335.144531 571.71875 339.296875 568.167969 339.296875 567.1875 C 339.296875 566.207031 334.113281 564.164062 327.777344 562.644531 C 316.742188 559.996094 315.867188 560.15625 306.941406 566.472656 C 301.816406 570.097656 297.601562 573.664062 297.574219 574.398438 C 297.527344 575.691406 311.945312 580.304688 317.882812 580.894531 C 319.503906 581.054688 324.988281 578.4375 330.066406 575.078125 Z M 510.945312 576.125 C 516.574219 574 516.503906 573.875 505.984375 567.03125 C 495.457031 560.183594 495.144531 560.132812 482.867188 563.242188 L 470.425781 566.394531 L 480.75 573.875 C 491.429688 581.609375 495.582031 581.917969 510.945312 576.125 Z M 423 574.144531 C 428.089844 571.421875 429.117188 560.539062 424.707031 556.125 C 423.089844 554.511719 415.347656 553.339844 406.269531 553.339844 C 392.730469 553.339844 390.132812 554.035156 387.007812 558.5 C 382.359375 565.136719 382.449219 566.320312 388.035156 571.90625 C 391.566406 575.433594 395.773438 576.546875 405.59375 576.546875 C 412.699219 576.546875 420.53125 575.464844 423 574.144531 Z M 264.644531 565.0625 C 306.050781 554.539062 346.738281 550.230469 405.441406 550.152344 C 470.039062 550.066406 501.675781 553.746094 563.257812 568.515625 C 568.101562 569.675781 569.515625 569.441406 567.902344 567.742188 C 565.117188 564.8125 517.910156 554.804688 489.683594 551.164062 C 432.441406 543.777344 372.414062 544.164062 314.929688 552.289062 C 285.394531 556.460938 248.625 564.519531 245.421875 567.519531 C 242.289062 570.453125 244.605469 570.15625 264.644531 565.0625 Z M 277.796875 548.699219 C 278.585938 547.425781 277.082031 546.378906 274.453125 546.378906 C 271.824219 546.378906 269.675781 547.425781 269.675781 548.699219 C 269.675781 549.976562 271.179688 551.019531 273.019531 551.019531 C 274.859375 551.019531 277.007812 549.976562 277.796875 548.699219 Z M 542.371094 548.699219 C 541.582031 547.425781 539.433594 546.378906 537.59375 546.378906 C 535.753906 546.378906 534.25 547.425781 534.25 548.699219 C 534.25 549.976562 536.398438 551.019531 539.027344 551.019531 C 541.65625 551.019531 543.160156 549.976562 542.371094 548.699219 Z M 319.738281 542.777344 C 331.492188 541.308594 332.601562 540.777344 327.691406 538.964844 C 324.554688 537.804688 320.132812 535.175781 317.863281 533.125 C 315.597656 531.070312 313.488281 529.824219 313.175781 530.355469 C 312.863281 530.886719 309.476562 534.871094 305.648438 539.207031 C 301.648438 543.738281 300.257812 546.539062 302.382812 545.789062 C 304.414062 545.074219 312.226562 543.71875 319.738281 542.777344 Z M 506.199219 538.730469 L 498.917969 531.078125 L 479.542969 540.578125 L 494.710938 543.203125 C 503.054688 544.648438 510.691406 545.953125 511.679688 546.105469 C 512.671875 546.257812 510.203125 542.9375 506.199219 538.730469 Z M 401.722656 536.996094 C 429.84375 536.898438 430.613281 536.769531 421.71875 533.601562 C 416.628906 531.789062 411.195312 528.570312 409.640625 526.445312 C 407.066406 522.921875 406.179688 523.117188 399.570312 528.679688 C 391.035156 535.859375 375.765625 536.953125 364.605469 531.183594 C 357.9375 527.734375 357.339844 527.847656 350.214844 533.875 L 342.78125 540.160156 L 357.625 538.628906 C 365.789062 537.789062 385.632812 537.050781 401.722656 536.996094 Z M 461.320312 533.589844 C 453.429688 528.234375 452.320312 528.042969 447.714844 531.269531 C 444.957031 533.199219 440.0625 534.933594 436.835938 535.125 C 429.710938 535.550781 448.1875 538.582031 460.886719 539.070312 L 469.914062 539.417969 Z M 317.945312 513.429688 C 321.757812 509.621094 321.449219 501.136719 317.378906 497.757812 C 312.496094 493.703125 304.117188 495.714844 302.011719 501.445312 C 298.398438 511.285156 310.777344 520.597656 317.945312 513.429688 Z M 508.253906 513.429688 C 512.066406 509.621094 511.757812 501.136719 507.6875 497.757812 C 502.804688 493.703125 494.425781 495.714844 492.320312 501.445312 C 488.707031 511.285156 501.085938 520.597656 508.253906 513.429688 Z M 416.914062 499.453125 C 418.902344 496.617188 420.527344 492.394531 420.527344 490.066406 C 420.527344 484.910156 410.492188 474.445312 405.546875 474.445312 C 399.894531 474.445312 392.679688 483.125 392.679688 489.925781 C 392.679688 503.433594 409.496094 510.046875 416.914062 499.453125 Z M 200.542969 506.496094 C 196.734375 502.691406 197.003906 498.820312 201.324219 495.234375 C 206.472656 490.964844 213.914062 498.191406 210.289062 503.9375 C 207.027344 509.105469 203.957031 509.910156 200.542969 506.496094 Z M 225.578125 505.773438 C 223.988281 503.859375 221.371094 502.292969 219.757812 502.292969 C 218.148438 502.292969 215.117188 499.679688 213.027344 496.492188 C 210.683594 492.914062 207.042969 490.6875 203.535156 490.6875 C 196.261719 490.6875 190.25 479.921875 192.171875 470.324219 C 193.21875 465.089844 192.164062 462.082031 187.503906 457.058594 C 180.578125 449.589844 178.933594 435 185.011719 435 C 186.957031 435 189.714844 432.429688 191.144531 429.292969 C 193.195312 424.789062 192.996094 422.445312 190.195312 418.171875 C 185.105469 410.402344 190.476562 400.191406 199.660156 400.191406 C 207.820312 400.191406 211.652344 396.351562 211.652344 388.179688 C 211.652344 379.566406 221.621094 372.527344 228.09375 376.570312 C 235.226562 381.023438 241.691406 379.820312 244.566406 373.503906 C 246.933594 368.316406 248.589844 367.703125 260.296875 367.703125 L 273.382812 367.703125 L 272.449219 375.71875 C 271.558594 383.328125 270.960938 383.808594 260.730469 385.144531 C 246.910156 386.945312 232.066406 392.269531 224.695312 398.066406 C 221.507812 400.574219 216.089844 408.371094 212.648438 415.398438 C 201.195312 438.808594 207.070312 465.773438 229.925781 494.679688 C 237.398438 504.132812 238.566406 506.796875 235.722656 507.886719 C 230.386719 509.933594 228.75 509.59375 225.578125 505.773438 Z M 576.8125 507.464844 C 574.980469 506.304688 577.5 501.289062 584.664062 491.839844 C 611.40625 456.566406 613.027344 422.78125 589.046875 400.675781 C 578.609375 391.058594 570.445312 387.617188 552.234375 385.152344 C 543.578125 383.984375 541.210938 382.738281 541.210938 379.355469 C 541.210938 376.984375 540.578125 373.394531 539.800781 371.375 C 538.613281 368.273438 540.597656 367.703125 552.566406 367.703125 C 563.058594 367.703125 566.738281 368.535156 566.738281 370.902344 C 566.738281 377.621094 573.394531 380.351562 582.09375 377.207031 C 589 374.707031 591.023438 374.835938 595.980469 378.085938 C 600.0625 380.757812 601.367188 383.199219 600.378906 386.308594 C 599.605469 388.742188 600.167969 392.964844 601.628906 395.695312 C 603.667969 399.503906 605.890625 400.421875 611.179688 399.644531 C 616.984375 398.792969 618.648438 399.742188 621.703125 405.652344 C 624.492188 411.039062 624.726562 413.632812 622.726562 416.839844 C 618.480469 423.632812 619.722656 429.988281 626.105469 434.171875 C 631.3125 437.582031 631.894531 439.171875 630.550781 446.328125 C 629.699219 450.859375 626.890625 456.042969 624.308594 457.851562 C 620.578125 460.464844 619.882812 462.808594 620.929688 469.257812 C 622.863281 481.164062 617.296875 490.6875 608.40625 490.6875 C 603.394531 490.6875 600.769531 492.1875 599.011719 496.046875 C 597.667969 498.992188 593.253906 502.828125 589.199219 504.566406 C 585.144531 506.308594 581.304688 508.058594 580.664062 508.457031 C 580.027344 508.851562 578.292969 508.410156 576.8125 507.464844 Z M 604.367188 506.496094 C 600.558594 502.691406 600.828125 498.820312 605.148438 495.234375 C 610.296875 490.964844 617.738281 498.191406 614.113281 503.9375 C 610.851562 509.105469 607.78125 509.910156 604.367188 506.496094 Z M 279.449219 476.332031 C 272.8125 469.695312 279.792969 460.675781 287.269531 466.226562 C 290.761719 468.820312 291.183594 470.410156 289.234375 473.59375 C 285.96875 478.925781 282.902344 479.785156 279.449219 476.332031 Z M 525.546875 477.550781 C 521.660156 475.980469 521.859375 468.707031 525.878906 465.367188 C 528.378906 463.296875 529.964844 463.53125 532.84375 466.410156 C 537.300781 470.867188 537.46875 472.621094 533.785156 476.300781 C 530.816406 479.269531 530.082031 479.382812 525.546875 477.550781 Z M 177.746094 471.136719 C 175.632812 465.636719 178.621094 460.078125 183.214844 460.964844 C 185.785156 461.457031 187.285156 463.863281 187.285156 467.484375 C 187.285156 474.097656 179.960938 476.902344 177.746094 471.136719 Z M 292.882812 470.046875 C 292.882812 464.875 288.394531 460.523438 283.0625 460.523438 C 276.945312 460.523438 275.664062 454.882812 280.207031 447.949219 C 283.851562 442.386719 283.859375 441.546875 280.332031 436.160156 C 278.242188 432.96875 274.988281 430.355469 273.101562 430.355469 C 270.992188 430.355469 269.675781 428.125 269.675781 424.554688 C 269.675781 421.367188 270.457031 418.878906 271.414062 419.03125 C 276.46875 419.828125 279.304688 418.210938 281.566406 413.246094 C 284.558594 406.683594 280.878906 397.871094 275.144531 397.871094 C 272.773438 397.871094 271.992188 396.585938 272.90625 394.199219 C 273.683594 392.179688 274.316406 390.09375 274.316406 389.558594 C 274.316406 389.027344 276.800781 388.589844 279.832031 388.589844 C 287.292969 388.589844 291.308594 383.132812 290.070312 374.683594 C 288.972656 367.207031 295.59375 358.0625 298.589844 362.914062 C 299.429688 364.273438 302.757812 365.382812 305.984375 365.382812 C 310.371094 365.382812 312.515625 363.628906 314.480469 358.421875 C 316.941406 351.910156 317.890625 351.460938 329.265625 351.460938 C 339.203125 351.460938 345.058594 353.378906 361.371094 361.980469 C 376.898438 370.171875 380.78125 371.488281 378.875 367.933594 C 377.53125 365.421875 376.433594 363.039062 376.433594 362.636719 C 376.433594 362.234375 390.011719 361.902344 406.605469 361.898438 C 434.582031 361.894531 440.40625 362.867188 434.453125 366.542969 C 433.175781 367.332031 432.132812 368.851562 432.132812 369.917969 C 432.132812 370.984375 441.050781 367.269531 451.953125 361.660156 C 467.445312 353.6875 474.261719 351.460938 483.160156 351.460938 C 493.289062 351.460938 494.875 352.164062 497.589844 357.84375 C 500.859375 364.683594 509.285156 367.410156 514.296875 363.25 C 516.511719 361.410156 518.339844 361.910156 521.285156 365.160156 C 523.890625 368.042969 524.414062 370.089844 522.796875 371.09375 C 515.769531 375.433594 523.445312 388.589844 533.007812 388.589844 C 535.96875 388.589844 539.050781 390.304688 539.855469 392.402344 C 540.664062 394.5 541.035156 396.324219 540.6875 396.460938 C 529.410156 400.867188 526.246094 411.5 534.496094 417.273438 C 537.328125 419.257812 540.519531 420.339844 541.589844 419.679688 C 542.65625 419.019531 543.53125 421.039062 543.53125 424.167969 C 543.53125 428.289062 541.945312 430.253906 537.765625 431.300781 C 530.125 433.21875 527.578125 442.832031 533.09375 448.929688 C 538.421875 454.816406 536.304688 459.53125 527.546875 461.28125 C 522.71875 462.25 520.019531 464.410156 519.105469 468.042969 C 517.933594 472.714844 516.597656 473.273438 508.453125 472.496094 C 500.882812 471.777344 499.4375 470.898438 500.742188 467.808594 C 519.464844 423.402344 519.484375 387.988281 500.792969 375.742188 C 490.117188 368.746094 480.304688 369.058594 453.792969 377.226562 C 418.230469 388.179688 394.519531 388.207031 359.496094 377.320312 C 339.984375 371.253906 332.230469 369.863281 324.453125 371.027344 C 313.535156 372.664062 304.1875 380.542969 299.992188 391.640625 C 294.289062 406.734375 298.789062 440.261719 309.28125 460.820312 C 311.925781 466.007812 313.761719 470.53125 313.351562 470.871094 C 312.945312 471.210938 308.171875 472.054688 302.746094 472.746094 C 294.507812 473.796875 292.882812 473.351562 292.882812 470.046875 Z M 625.085938 471.359375 C 621.144531 466.609375 624.378906 460.140625 630.277344 460.980469 C 633.789062 461.480469 635.203125 463.339844 635.203125 467.453125 C 635.203125 474.074219 629.25 476.371094 625.085938 471.359375 Z M 266.5625 445.5625 C 264.332031 439.753906 267.492188 434.6875 272.871094 435.457031 C 276.390625 435.957031 277.796875 437.8125 277.796875 441.960938 C 277.796875 448.71875 268.871094 451.582031 266.5625 445.5625 Z M 391.433594 438.480469 C 389.113281 422.714844 391.121094 394.894531 394.660156 393.722656 C 396.921875 392.972656 397.375 394.039062 396.273438 397.507812 C 394.136719 404.246094 398.777344 411.792969 405.058594 411.792969 C 412.164062 411.792969 415.886719 407.578125 415.886719 399.535156 C 415.886719 395.21875 416.917969 393.183594 418.789062 393.796875 C 422.320312 394.960938 423.761719 414.523438 421.742188 433.835938 L 420.285156 447.761719 L 392.800781 447.761719 Z M 415.09375 433.203125 C 415.90625 429.964844 415.527344 425.652344 414.25 423.617188 C 410.863281 418.207031 401.621094 417.550781 398.03125 422.457031 C 393.859375 428.160156 394.226562 431.90625 399.46875 437.144531 C 405.261719 442.9375 413.148438 440.945312 415.09375 433.203125 Z M 402.542969 435.769531 C 398.714844 434.242188 398.832031 426.957031 402.730469 423.71875 C 407.605469 419.675781 415.539062 426.4375 412.238281 431.824219 C 409.441406 436.390625 406.789062 437.46875 402.542969 435.769531 Z M 535.152344 445.613281 C 533.042969 440.109375 536.03125 434.554688 540.625 435.4375 C 543.191406 435.933594 544.691406 438.335938 544.691406 441.960938 C 544.691406 448.574219 537.367188 451.378906 535.152344 445.613281 Z M 177.304688 429.894531 C 173.554688 426.144531 173.796875 422.242188 178 418.753906 C 180.777344 416.449219 182.1875 416.449219 184.964844 418.753906 C 189.523438 422.539062 189.417969 429.488281 184.773438 431.269531 C 180.097656 433.0625 180.558594 433.148438 177.304688 429.894531 Z M 626.386719 431.210938 C 623.585938 428.410156 624.613281 419.308594 627.871094 418.058594 C 632.871094 416.140625 636.835938 419.996094 635.988281 425.953125 C 635.21875 431.359375 629.609375 434.429688 626.386719 431.210938 Z M 267.515625 412.09375 C 265.605469 408.53125 265.894531 406.625 268.765625 403.753906 C 273.476562 399.042969 279.527344 403.183594 278.488281 410.40625 C 277.566406 416.820312 270.617188 417.890625 267.515625 412.09375 Z M 534.410156 412.09375 C 532.503906 408.53125 532.789062 406.625 535.660156 403.753906 C 540.371094 399.042969 546.421875 403.183594 545.382812 410.40625 C 544.464844 416.820312 537.511719 417.890625 534.410156 412.09375 Z M 402.453125 406.71875 C 398.648438 402.910156 398.914062 399.039062 403.238281 395.453125 C 408.382812 391.183594 415.824219 398.410156 412.199219 404.15625 C 408.941406 409.324219 405.867188 410.132812 402.453125 406.71875 Z M 198.222656 395.113281 C 194.414062 391.308594 194.683594 387.4375 199.003906 383.851562 C 204.152344 379.582031 211.59375 386.808594 207.964844 392.554688 C 204.707031 397.722656 201.636719 398.527344 198.222656 395.113281 Z M 606.6875 395.113281 C 602.652344 391.082031 603.21875 384.695312 607.765625 382.949219 C 613.453125 380.769531 619.582031 387.5625 616.433594 392.554688 C 613.171875 397.722656 610.101562 398.527344 606.6875 395.113281 Z M 314.351562 386.949219 C 306.734375 385.484375 307.953125 381.882812 317.394531 377.9375 C 326.523438 374.125 336.539062 375.355469 364.828125 383.769531 L 379.914062 388.257812 L 349.742188 388.105469 C 333.148438 388.023438 317.222656 387.503906 314.351562 386.949219 Z M 450.699219 382.667969 C 473.832031 375.078125 492.515625 374.222656 499.40625 380.445312 L 504.519531 385.066406 L 499.078125 386.597656 C 496.082031 387.4375 480.058594 388.183594 463.464844 388.253906 L 433.292969 388.382812 Z M 275.546875 381.738281 C 272.589844 376.957031 276.773438 369.71875 282.058594 370.46875 C 289.144531 371.480469 289.164062 382.492188 282.078125 383.5 C 279.324219 383.890625 276.386719 383.101562 275.546875 381.738281 Z M 525.804688 380.46875 C 523.964844 375.675781 526.460938 370.023438 530.410156 370.023438 C 535.160156 370.023438 539.203125 375.792969 537.523438 380.171875 C 535.703125 384.914062 527.589844 385.117188 525.804688 380.46875 Z M 232.707031 374.769531 C 231.117188 373.785156 230.167969 370.488281 230.597656 367.441406 C 231.734375 359.402344 240.425781 359.839844 241.371094 367.988281 C 242.117188 374.4375 237.730469 377.871094 232.707031 374.769531 Z M 572.4375 373.664062 C 568.800781 370.964844 568.410156 369.464844 570.472656 366.101562 C 573.722656 360.804688 578.257812 360.730469 581.535156 365.921875 C 583.464844 368.984375 583.226562 370.78125 580.519531 373.484375 C 577.40625 376.597656 576.417969 376.617188 572.4375 373.664062 Z M 302.332031 360.847656 C 300.742188 359.863281 299.792969 356.566406 300.222656 353.519531 C 301.359375 345.476562 310.050781 345.917969 310.996094 354.066406 C 311.742188 360.515625 307.355469 363.949219 302.332031 360.847656 Z M 502.25 360.308594 C 498.441406 356.5 498.710938 352.632812 503.035156 349.042969 C 508.179688 344.773438 515.621094 352 511.996094 357.75 C 508.734375 362.914062 505.664062 363.722656 502.25 360.308594 Z M 377.011719 356.886719 C 371.074219 354.488281 374.304688 349.3125 382.8125 347.59375 C 403.226562 343.46875 439.09375 346.582031 439.09375 352.480469 C 439.09375 354.199219 437.441406 356.238281 435.421875 357.015625 C 431.066406 358.6875 381.199219 358.578125 377.011719 356.886719 Z M 375.328125 341.691406 C 378.132812 332.300781 383.429688 325.84375 391.46875 322.011719 C 396.414062 319.652344 399.84375 316.042969 400.746094 312.242188 C 401.535156 308.925781 402.746094 304.316406 403.4375 302 C 404.605469 298.078125 404.046875 298.117188 395.296875 302.582031 C 390.128906 305.214844 384.8125 307.371094 383.488281 307.371094 C 382.109375 307.371094 381.074219 301.898438 381.074219 294.609375 C 381.074219 287.589844 381.570312 281.847656 382.179688 281.847656 C 382.785156 281.847656 386.703125 283.933594 390.882812 286.480469 C 402.945312 293.835938 404.5625 292.785156 400.714844 280.105469 C 395.839844 264.046875 396.109375 263.285156 406.601562 263.285156 C 411.707031 263.285156 415.875 263.546875 415.859375 263.863281 C 415.847656 264.183594 414.316406 270.140625 412.460938 277.097656 C 410.609375 284.058594 409.476562 290.136719 409.945312 290.601562 C 410.414062 291.070312 415.074219 289.269531 420.304688 286.601562 L 429.8125 281.753906 L 429.8125 294.5625 C 429.8125 301.609375 429.246094 307.371094 428.558594 307.371094 C 427.871094 307.371094 423.113281 305.234375 417.988281 302.621094 L 408.671875 297.867188 L 410.199219 306.679688 C 411.042969 311.527344 413.433594 316.539062 415.519531 317.816406 C 422.867188 322.316406 436.773438 337.035156 436.773438 340.3125 C 436.773438 342.992188 431.984375 343.601562 411.824219 343.484375 C 398.101562 343.40625 383.921875 344.164062 380.308594 345.171875 C 374.238281 346.863281 373.863281 346.597656 375.328125 341.691406 Z M 375.328125 341.691406 " fill-opacity="1" fill-rule="nonzero"/></g><g clip-path="url(#f2f2499a4a)"><g clip-path="url(#b1a2a34061)"><path fill="#e42d2d" d="M 126.707031 430.023438 L 168.078125 430.023438 L 168.078125 471.394531 L 126.707031 471.394531 Z M 126.707031 430.023438 " fill-opacity="1" fill-rule="nonzero"/></g></g><g clip-path="url(#535cc081fa)"><g clip-path="url(#1842d9fab3)"><path fill="#e42d2d" d="M 126.707031 483.152344 L 168.078125 483.152344 L 168.078125 524.523438 L 126.707031 524.523438 Z M 126.707031 483.152344 " fill-opacity="1" fill-rule="nonzero"/></g></g><g clip-path="url(#256cbd3d31)"><g clip-path="url(#b37ae9059e)"><path fill="#e42d2d" d="M 642.195312 483.152344 L 683.566406 483.152344 L 683.566406 524.523438 L 642.195312 524.523438 Z M 642.195312 483.152344 " fill-opacity="1" fill-rule="nonzero"/></g></g><g clip-path="url(#7c4ab8a1c6)"><g clip-path="url(#9c51ef0ccb)"><path fill="#e42d2d" d="M 147.394531 541.023438 L 188.765625 541.023438 L 188.765625 582.394531 L 147.394531 582.394531 Z M 147.394531 541.023438 " fill-opacity="1" fill-rule="nonzero"/></g></g><g clip-path="url(#ff9a003dfe)"><g clip-path="url(#c5230beee7)"><path fill="#e42d2d" d="M 621.234375 541.023438 L 662.605469 541.023438 L 662.605469 582.394531 L 621.234375 582.394531 Z M 621.234375 541.023438 " fill-opacity="1" fill-rule="nonzero"/></g></g><g clip-path="url(#e3d2a1c03c)"><g clip-path="url(#2bdaad8133)"><path fill="#e42d2d" d="M 168.078125 598.59375 L 209.449219 598.59375 L 209.449219 639.964844 L 168.078125 639.964844 Z M 168.078125 598.59375 " fill-opacity="1" fill-rule="nonzero"/></g></g><g clip-path="url(#512cbd6291)"><g clip-path="url(#1f6b14196a)"><path fill="#e42d2d" d="M 595.574219 598.59375 L 636.945312 598.59375 L 636.945312 639.964844 L 595.574219 639.964844 Z M 595.574219 598.59375 " fill-opacity="1" fill-rule="nonzero"/></g></g><g clip-path="url(#de3a53a5de)"><g clip-path="url(#4cdfd804f6)"><path fill="#e42d2d" d="M 642.195312 430.023438 L 683.566406 430.023438 L 683.566406 471.394531 L 642.195312 471.394531 Z M 642.195312 430.023438 " fill-opacity="1" fill-rule="nonzero"/></g></g><g clip-path="url(#00f356f479)"><g clip-path="url(#ed9bd64a25)"><path fill="#e42d2d" d="M 139.136719 363.628906 L 180.507812 363.628906 L 180.507812 405 L 139.136719 405 Z M 139.136719 363.628906 " fill-opacity="1" fill-rule="nonzero"/></g></g><g clip-path="url(#e2a0a16302)"><g clip-path="url(#866114dc98)"><path fill="#e42d2d" d="M 628.019531 363.628906 L 669.390625 363.628906 L 669.390625 405 L 628.019531 405 Z M 628.019531 363.628906 " fill-opacity="1" fill-rule="nonzero"/></g></g><g clip-path="url(#36daab637e)"><g clip-path="url(#cf83a4367d)"><path fill="#e42d2d" d="M 173.054688 305.625 L 214.425781 305.625 L 214.425781 346.996094 L 173.054688 346.996094 Z M 173.054688 305.625 " fill-opacity="1" fill-rule="nonzero"/></g></g><g clip-path="url(#01cb1eda11)"><g clip-path="url(#d97f7c77da)"><path fill="#e42d2d" d="M 595.574219 305.625 L 636.945312 305.625 L 636.945312 346.996094 L 595.574219 346.996094 Z M 595.574219 305.625 " fill-opacity="1" fill-rule="nonzero"/></g></g><g clip-path="url(#617eac1347)"><g clip-path="url(#3c27a6cf0a)"><path fill="#e42d2d" d="M 214.425781 254.871094 L 255.796875 254.871094 L 255.796875 296.242188 L 214.425781 296.242188 Z M 214.425781 254.871094 " fill-opacity="1" fill-rule="nonzero"/></g></g><g clip-path="url(#da1642ee18)"><g clip-path="url(#cda7a246c2)"><path fill="#e42d2d" d="M 558.675781 254.871094 L 600.046875 254.871094 L 600.046875 296.242188 L 558.675781 296.242188 Z M 558.675781 254.871094 " fill-opacity="1" fill-rule="nonzero"/></g></g><g clip-path="url(#1c10722b22)"><g clip-path="url(#f4e2281092)"><path fill="#e42d2d" d="M 271.394531 221.875 L 312.765625 221.875 L 312.765625 263.246094 L 271.394531 263.246094 Z M 271.394531 221.875 " fill-opacity="1" fill-rule="nonzero"/></g></g><g clip-path="url(#a1412989f8)"><g clip-path="url(#29a3c6c6c0)"><path fill="#e42d2d" d="M 501.554688 221.875 L 542.925781 221.875 L 542.925781 263.246094 L 501.554688 263.246094 Z M 501.554688 221.875 " fill-opacity="1" fill-rule="nonzero"/></g></g><g clip-path="url(#180dde0782)"><g clip-path="url(#274d2f0744)"><path fill="#e42d2d" d="M 324.21875 199.015625 L 365.589844 199.015625 L 365.589844 240.386719 L 324.21875 240.386719 Z M 324.21875 199.015625 " fill-opacity="1" fill-rule="nonzero"/></g></g><g clip-path="url(#9a4cde5957)"><g clip-path="url(#c29194731a)"><path fill="#e42d2d" d="M 444.433594 199.015625 L 485.804688 199.015625 L 485.804688 240.386719 L 444.433594 240.386719 Z M 444.433594 199.015625 " fill-opacity="1" fill-rule="nonzero"/></g></g><g clip-path="url(#abb240a14b)"><g clip-path="url(#0cc8e970f9)"><path fill="#e42d2d" d="M 384.316406 193.101562 L 425.683594 193.101562 L 425.683594 234.472656 L 384.316406 234.472656 Z M 384.316406 193.101562 " fill-opacity="1" fill-rule="nonzero"/></g></g><g clip-path="url(#5fb4b73b88)"><g clip-path="url(#a78c3dc488)"><path fill="#000000" d="M 244.089844 632.914062 L 570.957031 632.914062 L 570.957031 680.023438 L 244.089844 680.023438 Z M 244.089844 632.914062 " fill-opacity="1" fill-rule="nonzero"/></g></g></svg>